<svg xmlns="http://www.w3.org/2000/svg" version="1.1" xmlns:xlink="http://www.w3.org/1999/xlink" xmlns:svgjs="http://svgjs.dev/svgjs" width="2000" height="2000" viewBox="0 0 2000 2000"><g transform="matrix(1,0,0,1,-0.28443113772425477,-0.28443113772459583)"><svg viewBox="0 0 334 334" data-background-color="#000000" preserveAspectRatio="xMidYMid meet" height="2000" width="2000" xmlns="http://www.w3.org/2000/svg" xmlns:xlink="http://www.w3.org/1999/xlink"><g id="tight-bounds" transform="matrix(1,0,0,1,0.04749999999998522,0.04750000000001364)"><svg viewBox="0 0 333.90454557049503 333.90454557049503" height="333.90454557049503" width="333.90454557049503"><rect width="333.905" height="333.905" fill="url(#72a9635e-8436-4dd3-a052-d60bf332a344)" mask="url(#8e8f1165-0e76-45c2-bde0-233416a1bb61)" data-fill-palette-color="tertiary"></rect><g><svg></svg></g><g><svg viewBox="0 0 333.90454557049503 333.90454557049503" height="333.90454557049503" width="333.90454557049503"><g><path d="M0 166.952c0-92.205 74.747-166.952 166.952-166.952 92.205 0 166.952 74.747 166.953 166.952 0 92.205-74.747 166.952-166.953 166.953-92.205 0-166.952-74.747-166.952-166.953zM166.952 327.408c88.617 0 160.455-71.838 160.456-160.456 0-88.617-71.838-160.455-160.456-160.455-88.617 0-160.455 71.838-160.455 160.455 0 88.617 71.838 160.455 160.455 160.456z" data-fill-palette-color="tertiary" fill="url(#72a9635e-8436-4dd3-a052-d60bf332a344)" stroke="transparent"></path><ellipse rx="160.27418187383762" ry="160.27418187383762" cx="166.95227278524752" cy="166.95227278524752" fill="url(#72a9635e-8436-4dd3-a052-d60bf332a344)" stroke="transparent" stroke-width="0" fill-opacity="1" data-fill-palette-color="tertiary"></ellipse></g><g transform="matrix(1,0,0,1,116.91167807762444,71.17305217166896)"><svg viewBox="0 0 100.08118941524614 191.55844122715712" height="191.55844122715712" width="100.08118941524614"><g><svg viewBox="0 0 100.08118941524614 191.55844122715712" height="191.55844122715712" width="100.08118941524614"><g><svg viewBox="0 0 213.15844122715708 407.9917412498746" height="191.55844122715712" width="100.08118941524614"><g transform="matrix(1,0,0,1,0,208.4887142752701)"><svg viewBox="0 0 213.15844122715708 199.50302697460455" height="199.50302697460455" width="213.15844122715708"><g id="textblocktransform"><svg viewBox="0 0 213.15844122715708 199.50302697460455" height="199.50302697460455" width="213.15844122715708" id="textblock"><g><svg viewBox="0 0 213.15844122715708 153.44168893654802" height="153.44168893654802" width="213.15844122715708"><g transform="matrix(1,0,0,1,0,0)"><svg width="213.15844122715708" viewBox="4.8 -27 52.650000000000006 37.900000000000006" height="153.44168893654802" data-palette-color="#000000"><path d="M5.85-22.55L5.85-26.2 25.4-26.2 25.4-22.5 9.8-3.65 26.1-3.65 26.1 0 4.8 0 4.8-3.75 20.45-22.55 5.85-22.55ZM45.7 10.9L45.7 10.9Q41.45 10.9 38.5 9.03 35.55 7.15 35 3L35 3 39.35 3Q40.25 7.4 45.8 7.4L45.8 7.4Q49.75 7.4 51.47 5.23 53.2 3.05 53.2-2.2L53.2-2.2 53.2-3.7Q52.05-1.4 50.02-0.25 48 0.9 45.4 0.9L45.4 0.9Q41.55 0.9 39-0.95 36.45-2.8 35.22-6 34-9.2 34-13.2L34-13.2Q34-17.05 35.25-20.18 36.5-23.3 39.02-25.15 41.55-27 45.25-27L45.25-27Q50.6-27 53.3-22.95L53.3-22.95 53.3-26.2 57.45-26.2 57.45-4.25Q57.45 1.2 56.55 4.05L56.55 4.05Q55.45 7.45 52.7 9.18 49.95 10.9 45.7 10.9ZM46-3L46-3Q48.65-3 50.25-4.48 51.85-5.95 52.57-8.22 53.3-10.5 53.3-12.9L53.3-12.9Q53.3-15.55 52.55-17.88 51.8-20.2 50.2-21.65 48.6-23.1 45.95-23.1L45.95-23.1Q43.5-23.1 41.8-21.78 40.1-20.45 39.22-18.18 38.35-15.9 38.35-13.05L38.35-13.05Q38.35-10.4 39.15-8.1 39.95-5.8 41.62-4.4 43.3-3 46-3Z" opacity="1" transform="matrix(1,0,0,1,0,0)" fill="#000000" class="wordmark-text-0" data-fill-palette-color="quaternary" id="text-0"></path></svg></g></svg></g><g transform="matrix(1,0,0,1,0,189.66558909393254)"><svg viewBox="0 0 213.15844122715708 9.837437880672018" height="9.837437880672018" width="213.15844122715708"><g transform="matrix(1,0,0,1,0,0)"><svg width="213.15844122715708" viewBox="-2.25 -23.5 509.15 15" height="9.837437880672018" data-palette-color="#000000"><path d="M-2.25-8.5L-2.25-23.5 16.55-23.5 16.55-8.5-2.25-8.5ZM12.05-8.5L12.05-23.5 30.85-23.5 30.85-8.5 12.05-8.5ZM26.35-8.5L26.35-23.5 45.15-23.5 45.15-8.5 26.35-8.5ZM40.64-8.5L40.64-23.5 73.74-23.5 73.74-8.5 40.64-8.5ZM99.24-8.5L99.24-23.5 132.34-23.5 132.34-8.5 99.24-8.5ZM127.84-8.5L127.84-23.5 160.94-23.5 160.94-8.5 127.84-8.5ZM156.43-8.5L156.43-23.5 189.53-23.5 189.53-8.5 156.43-8.5ZM185.03-8.5L185.03-23.5 203.83-23.5 203.83-8.5 185.03-8.5ZM199.33-8.5L199.33-23.5 218.13-23.5 218.13-8.5 199.33-8.5ZM213.63-8.5L213.63-23.5 246.73-23.5 246.73-8.5 213.63-8.5ZM242.22-8.5L242.22-23.5 275.32-23.5 275.32-8.5 242.22-8.5ZM300.82-8.5L300.82-23.5 333.92-23.5 333.92-8.5 300.82-8.5ZM329.42-8.5L329.42-23.5 362.52-23.5 362.52-8.5 329.42-8.5ZM358.01-8.5L358.01-23.5 391.11-23.5 391.11-8.5 358.01-8.5ZM416.61-8.5L416.61-23.5 449.71-23.5 449.71-8.5 416.61-8.5ZM445.21-8.5L445.21-23.5 478.31-23.5 478.31-8.5 445.21-8.5ZM473.8-8.5L473.8-23.5 506.9-23.5 506.9-8.5 473.8-8.5Z" opacity="1" transform="matrix(1,0,0,1,0,0)" fill="#000000" class="slogan-text-1" data-fill-palette-color="quaternary" id="text-1"></path></svg></g></svg></g></svg></g></svg></g><g transform="matrix(1,0,0,1,40.713262274387006,0)"><svg viewBox="0 0 131.73191667838307 172.26481411788558" height="172.26481411788558" width="131.73191667838307"><g><svg xmlns="http://www.w3.org/2000/svg" xmlns:xlink="http://www.w3.org/1999/xlink" version="1.1" x="0" y="0" viewBox="18.4 8.7 63.699999999999996 83.3" enable-background="new 0 0 100 100" xml:space="preserve" height="172.26481411788558" width="131.73191667838307" class="icon-icon-0" data-fill-palette-color="quaternary" id="icon-0"><g fill="#000000" data-fill-palette-color="quaternary"><path fill="#000000" d="M82.1 34.2v-0.4l-0.3-0.3 0 0L58.7 9l0 0-0.3-0.3H58c0 0 0 0 0 0s0 0 0 0H26.8c-4.6 0-8.4 3.8-8.4 8.4v66.5c0 4.6 3.8 8.4 8.4 8.4h46.9c4.6 0 8.4-3.8 8.4-8.4V34.2C82.1 34.3 82.1 34.3 82.1 34.2 82.1 34.3 82.1 34.3 82.1 34.2zM80.1 83.6c0 3.5-2.9 6.4-6.4 6.4H26.8c-3.5 0-6.4-2.9-6.4-6.4V17.1c0-3.5 2.9-6.4 6.4-6.4h30.2v12.4H30.8c-0.6 0-1 0.4-1 1s0.4 1 1 1h26.1v1.7c0 1.4 0.4 2.8 1 4H30.8c-0.6 0-1 0.4-1 1s0.4 1 1 1h28.7c1.5 1.5 3.6 2.4 5.8 2.4h14.8V83.6zM58.9 26.9v-2.7V12.3l19.8 21H65.3C61.8 33.3 58.9 30.4 58.9 26.9z" data-fill-palette-color="quaternary"></path><path fill="#000000" d="M69.5 46.2H30.8c-0.6 0-1 0.4-1 1s0.4 1 1 1h38.7c0.6 0 1-0.4 1-1S70.1 46.2 69.5 46.2z" data-fill-palette-color="quaternary"></path><path fill="#000000" d="M29.8 39.5c0 0.6 0.4 1 1 1h38.7c0.6 0 1-0.4 1-1s-0.4-1-1-1H30.8C30.2 38.5 29.8 39 29.8 39.5z" data-fill-palette-color="quaternary"></path><path fill="#000000" d="M69.5 53.9H30.8c-0.6 0-1 0.4-1 1s0.4 1 1 1h38.7c0.6 0 1-0.4 1-1S70.1 53.9 69.5 53.9z" data-fill-palette-color="quaternary"></path><path fill="#000000" d="M69.5 61.6H30.8c-0.6 0-1 0.4-1 1s0.4 1 1 1h38.7c0.6 0 1-0.4 1-1S70.1 61.6 69.5 61.6z" data-fill-palette-color="quaternary"></path><path fill="#000000" d="M69.5 69.3H30.8c-0.6 0-1 0.4-1 1s0.4 1 1 1h38.7c0.6 0 1-0.4 1-1S70.1 69.3 69.5 69.3z" data-fill-palette-color="quaternary"></path><path fill="#000000" d="M69.5 76.9H30.8c-0.6 0-1 0.4-1 1s0.4 1 1 1h38.7c0.6 0 1-0.4 1-1S70.1 76.9 69.5 76.9z" data-fill-palette-color="quaternary"></path></g></svg></g></svg></g><g></g></svg></g></svg></g></svg></g></svg></g><defs></defs><mask id="8e8f1165-0e76-45c2-bde0-233416a1bb61"><g id="SvgjsG1591"><svg viewBox="0 0 333.90454557049503 333.90454557049503" height="333.90454557049503" width="333.90454557049503"><g><svg></svg></g><g><svg viewBox="0 0 333.90454557049503 333.90454557049503" height="333.90454557049503" width="333.90454557049503"><g><path d="M0 166.952c0-92.205 74.747-166.952 166.952-166.952 92.205 0 166.952 74.747 166.953 166.952 0 92.205-74.747 166.952-166.953 166.953-92.205 0-166.952-74.747-166.952-166.953zM166.952 327.408c88.617 0 160.455-71.838 160.456-160.456 0-88.617-71.838-160.455-160.456-160.455-88.617 0-160.455 71.838-160.455 160.455 0 88.617 71.838 160.455 160.455 160.456z" fill="white" stroke="transparent"></path><ellipse rx="160.27418187383762" ry="160.27418187383762" cx="166.95227278524752" cy="166.95227278524752" fill="white" stroke="transparent" stroke-width="0" fill-opacity="1"></ellipse></g><g transform="matrix(1,0,0,1,116.91167807762444,71.17305217166896)"><svg viewBox="0 0 100.08118941524614 191.55844122715712" height="191.55844122715712" width="100.08118941524614"><g><svg viewBox="0 0 100.08118941524614 191.55844122715712" height="191.55844122715712" width="100.08118941524614"><g><svg viewBox="0 0 213.15844122715708 407.9917412498746" height="191.55844122715712" width="100.08118941524614"><g transform="matrix(1,0,0,1,0,208.4887142752701)"><svg viewBox="0 0 213.15844122715708 199.50302697460455" height="199.50302697460455" width="213.15844122715708"><g id="SvgjsG1590"><svg viewBox="0 0 213.15844122715708 199.50302697460455" height="199.50302697460455" width="213.15844122715708" id="SvgjsSvg1589"><g><svg viewBox="0 0 213.15844122715708 153.44168893654802" height="153.44168893654802" width="213.15844122715708"><g transform="matrix(1,0,0,1,0,0)"><svg width="213.15844122715708" viewBox="4.8 -27 52.650000000000006 37.900000000000006" height="153.44168893654802" data-palette-color="#000000"><path d="M5.85-22.55L5.85-26.2 25.4-26.2 25.4-22.5 9.8-3.65 26.1-3.65 26.1 0 4.8 0 4.8-3.75 20.45-22.55 5.85-22.55ZM45.7 10.9L45.7 10.9Q41.45 10.9 38.5 9.03 35.55 7.15 35 3L35 3 39.35 3Q40.25 7.4 45.8 7.4L45.8 7.4Q49.75 7.4 51.47 5.23 53.2 3.05 53.2-2.2L53.2-2.2 53.2-3.7Q52.05-1.4 50.02-0.25 48 0.9 45.4 0.9L45.4 0.9Q41.55 0.9 39-0.95 36.45-2.8 35.22-6 34-9.2 34-13.2L34-13.2Q34-17.05 35.25-20.18 36.5-23.3 39.02-25.15 41.55-27 45.25-27L45.25-27Q50.6-27 53.3-22.95L53.3-22.95 53.3-26.2 57.45-26.2 57.45-4.25Q57.45 1.2 56.55 4.05L56.55 4.05Q55.45 7.45 52.7 9.18 49.95 10.9 45.7 10.9ZM46-3L46-3Q48.65-3 50.25-4.48 51.85-5.95 52.57-8.22 53.3-10.5 53.3-12.9L53.3-12.9Q53.3-15.55 52.55-17.88 51.8-20.2 50.2-21.65 48.6-23.1 45.95-23.1L45.95-23.1Q43.5-23.1 41.8-21.78 40.1-20.45 39.22-18.18 38.35-15.9 38.35-13.05L38.35-13.05Q38.35-10.4 39.15-8.1 39.95-5.8 41.62-4.4 43.3-3 46-3Z" opacity="1" transform="matrix(1,0,0,1,0,0)" fill="black" class="wordmark-text-0" id="SvgjsPath1588"></path></svg></g></svg></g><g transform="matrix(1,0,0,1,0,189.66558909393254)"><svg viewBox="0 0 213.15844122715708 9.837437880672018" height="9.837437880672018" width="213.15844122715708"><g transform="matrix(1,0,0,1,0,0)"><svg width="213.15844122715708" viewBox="-2.25 -23.5 509.15 15" height="9.837437880672018" data-palette-color="#000000"><path d="M-2.25-8.5L-2.25-23.5 16.55-23.5 16.55-8.5-2.25-8.5ZM12.05-8.5L12.05-23.5 30.85-23.5 30.85-8.5 12.05-8.5ZM26.35-8.5L26.35-23.5 45.15-23.5 45.15-8.5 26.35-8.5ZM40.64-8.5L40.64-23.5 73.74-23.5 73.74-8.5 40.64-8.5ZM99.24-8.5L99.24-23.5 132.34-23.5 132.34-8.5 99.24-8.5ZM127.84-8.5L127.84-23.5 160.94-23.5 160.94-8.5 127.84-8.5ZM156.43-8.5L156.43-23.5 189.53-23.5 189.53-8.5 156.43-8.5ZM185.03-8.5L185.03-23.5 203.83-23.5 203.83-8.5 185.03-8.5ZM199.33-8.5L199.33-23.5 218.13-23.5 218.13-8.5 199.33-8.5ZM213.63-8.5L213.63-23.5 246.73-23.5 246.73-8.5 213.63-8.5ZM242.22-8.5L242.22-23.5 275.32-23.5 275.32-8.5 242.22-8.5ZM300.82-8.5L300.82-23.5 333.92-23.5 333.92-8.5 300.82-8.5ZM329.42-8.5L329.42-23.5 362.52-23.5 362.52-8.5 329.42-8.5ZM358.01-8.5L358.01-23.5 391.11-23.5 391.11-8.5 358.01-8.5ZM416.61-8.5L416.61-23.5 449.71-23.5 449.71-8.5 416.61-8.5ZM445.21-8.5L445.21-23.5 478.31-23.5 478.31-8.5 445.21-8.5ZM473.8-8.5L473.8-23.5 506.9-23.5 506.9-8.5 473.8-8.5Z" opacity="1" transform="matrix(1,0,0,1,0,0)" fill="black" class="slogan-text-1" id="SvgjsPath1587"></path></svg></g></svg></g></svg></g></svg></g><g transform="matrix(1,0,0,1,40.713262274387006,0)"><svg viewBox="0 0 131.73191667838307 172.26481411788558" height="172.26481411788558" width="131.73191667838307"><g><svg xmlns="http://www.w3.org/2000/svg" xmlns:xlink="http://www.w3.org/1999/xlink" version="1.1" x="0" y="0" viewBox="18.4 8.7 63.699999999999996 83.3" enable-background="new 0 0 100 100" xml:space="preserve" height="172.26481411788558" width="131.73191667838307" class="icon-icon-0" data-fill-palette-color="quaternary" id="SvgjsSvg1586"><g fill="black"><path fill="black" d="M82.1 34.2v-0.4l-0.3-0.3 0 0L58.7 9l0 0-0.3-0.3H58c0 0 0 0 0 0s0 0 0 0H26.8c-4.6 0-8.4 3.8-8.4 8.4v66.5c0 4.6 3.8 8.4 8.4 8.4h46.9c4.6 0 8.4-3.8 8.4-8.4V34.2C82.1 34.3 82.1 34.3 82.1 34.2 82.1 34.3 82.1 34.3 82.1 34.2zM80.1 83.6c0 3.5-2.9 6.4-6.4 6.4H26.8c-3.5 0-6.4-2.9-6.4-6.4V17.1c0-3.5 2.9-6.4 6.4-6.4h30.2v12.4H30.8c-0.6 0-1 0.4-1 1s0.4 1 1 1h26.1v1.7c0 1.4 0.4 2.8 1 4H30.8c-0.6 0-1 0.4-1 1s0.4 1 1 1h28.7c1.5 1.5 3.6 2.4 5.8 2.4h14.8V83.6zM58.9 26.9v-2.7V12.3l19.8 21H65.3C61.8 33.3 58.9 30.4 58.9 26.9z"></path><path fill="black" d="M69.5 46.2H30.8c-0.6 0-1 0.4-1 1s0.4 1 1 1h38.7c0.6 0 1-0.4 1-1S70.1 46.2 69.5 46.2z"></path><path fill="black" d="M29.8 39.5c0 0.6 0.4 1 1 1h38.7c0.6 0 1-0.4 1-1s-0.4-1-1-1H30.8C30.2 38.5 29.8 39 29.8 39.5z"></path><path fill="black" d="M69.5 53.9H30.8c-0.6 0-1 0.4-1 1s0.4 1 1 1h38.7c0.6 0 1-0.4 1-1S70.1 53.9 69.5 53.9z"></path><path fill="black" d="M69.5 61.6H30.8c-0.6 0-1 0.4-1 1s0.4 1 1 1h38.7c0.6 0 1-0.4 1-1S70.1 61.6 69.5 61.6z"></path><path fill="black" d="M69.5 69.3H30.8c-0.6 0-1 0.4-1 1s0.4 1 1 1h38.7c0.6 0 1-0.4 1-1S70.1 69.3 69.5 69.3z"></path><path fill="black" d="M69.5 76.9H30.8c-0.6 0-1 0.4-1 1s0.4 1 1 1h38.7c0.6 0 1-0.4 1-1S70.1 76.9 69.5 76.9z"></path></g></svg></g></svg></g><g></g></svg></g></svg></g></svg></g></svg></g><defs><mask></mask></defs></svg><rect width="333.90454557049503" height="333.90454557049503" fill="black" stroke="none" visibility="hidden"></rect></g></mask><linearGradient x1="0" x2="1" y1="0.578" y2="0.595" id="72a9635e-8436-4dd3-a052-d60bf332a344"><stop stop-color="#6ee2f5" offset="0"></stop><stop stop-color="#6454f0" offset="1"></stop></linearGradient></svg><rect width="333.90454557049503" height="333.90454557049503" fill="none" stroke="none" visibility="hidden"></rect></g></svg></g></svg>